{"title":"Jurassic World {2015} NEW HQCAM X264 MP3 MRG","uid":12012197,"size":644199808,"categoryP":"video","categoryS":"movies","magnet":"?xt=urn:btih:ad7e5a3edba1a39348dd8cecb7d8c3f288e356dc&amp;dn=Jurassic+World+%7B2015%7D+NEW+HQCAM+X264+MP3+MRG&amp;tr=udp%3A%2F%2Ftracker.openbittorrent.com%3A80&amp;tr=udp%3A%2F%2Fopen.demonii.com%3A1337&amp;tr=udp%3A%2F%2Ftracker.coppersurfer.tk%3A6969&amp;tr=udp%3A%2F%2Fexodus.desync.com%3A6969","seeders":5,"leechers":1,"uploader":"makintos13","files":12,"time":1434228157,"description":"\nSCREENS:\n &lt;a href=&quot;\nhttp://imgmak.com/Hi&quot; rel=&quot;nofollow&quot; target=&quot;_NEW&quot;&gt;\nhttp://imgmak.com/Hi&lt;/a&gt;\n &lt;a href=&quot;\nhttp://imgmak.com/Hj&quot; rel=&quot;nofollow&quot; target=&quot;_NEW&quot;&gt;\nhttp://imgmak.com/Hj&lt;/a&gt;\n &lt;a href=&quot;\nhttp://imgmak.com/Hw&quot; rel=&quot;nofollow&quot; target=&quot;_NEW&quot;&gt;\nhttp://imgmak.com/Hw&lt;/a&gt;\n &lt;a href=&quot;\nhttp://imgmak.com/HJ&quot; rel=&quot;nofollow&quot; target=&quot;_NEW&quot;&gt;\nhttp://imgmak.com/HJ&lt;/a&gt;\n &lt;a href=&quot;\nhttp://imgmak.com/HW&quot; rel=&quot;nofollow&quot; target=&quot;_NEW&quot;&gt;\nhttp://imgmak.com/HW&lt;/a&gt;\n\n\n\nPortuguese AUDIO.............:(\n\nJurassic World {2015} NEW HQCAM X264 MP3 MRG.mkv\nFormat : Matroska\nFormat version : Version 4 / Version 2\nFile size : 612 MiB\nDuration : 1h 55mn\nOverall bit rate : 740 Kbps\n\n\nVideo\nID : 1\nFormat : AVC\nFormat/Info : Advanced Video Codec\nFormat profile : High@L3\nFormat settings, CABAC : Yes\nFormat settings, ReFrames : 4 frames\nCodec ID : V_MPEG4/ISO/AVC\nDuration : 1h 55mn\nBit rate : 629 Kbps\nWidth : 640 pixels\nHeight : 352 pixels\nDisplay aspect ratio : 16:9\nFrame rate mode : Constant\nFrame rate : 25.000 fps\nColor space : YUV\nChroma subsampling : 4:2:0\nBit depth : 8 bits\nScan type : Progressive\nBits/(Pixel*Frame) : 0.112\nStream size : 520 MiB (85%)\nWriting library : x264 core\n\nAudio\nID : 2\nFormat : MPEG Audio\nFormat version : Version 2\nFormat profile : Layer 3\nMode : Joint stereo\nMode extension : MS Stereo\nCodec ID : A_MPEG/L3\nCodec ID/Hint : MP3\nDuration : 1h 55mn\nBit rate mode : Constant\nBit rate : 96.0 Kbps\nChannel(s) : 2 channels\nSampling rate : 22.05 KHz\nCompression mode : Lossy\nDelay relative to video : -90ms\nStream size : 79.4 MiB (13%)\nWriting library : LAME3.99.5\nDefault : Yes\nForced : No","torrent":{"xt":"urn:btih:ad7e5a3edba1a39348dd8cecb7d8c3f288e356dc","amp;dn":"Jurassic+World+%7B2015%7D+NEW+HQCAM+X264+MP3+MRG","amp;tr":["udp%3A%2F%2Ftracker.openbittorrent.com%3A80","udp%3A%2F%2Fopen.demonii.com%3A1337","udp%3A%2F%2Ftracker.coppersurfer.tk%3A6969","udp%3A%2F%2Fexodus.desync.com%3A6969"],"infoHash":"ad7e5a3edba1a39348dd8cecb7d8c3f288e356dc","infoHashBuffer":{"type":"Buffer","data":[173,126,90,62,219,161,163,147,72,221,140,236,183,216,195,242,136,227,86,220]},"announce":[],"urlList":[]}}